{"asset":{"version":"2.0","generator":"babylon.js glTF exporter for Autodesk MAYA 2022 v20230608.5"},"scene":0,"scenes":[{"nodes":[0]}],"nodes":[{"mesh":0,"name":"pSphere1"}],"meshes":[{"primitives":[{"attributes":{"POSITION":1,"TANGENT":2,"NORMAL":3,"TEXCOORD_0":4},"indices":0,"material":0}],"name":"pSphere1"}],"accessors":[{"bufferView":0,"componentType":5123,"count":2280,"type":"SCALAR","name":"accessorIndices"},{"bufferView":1,"componentType":5126,"count":2280,"max":[0.01,0.01,0.0100000007],"min":[-0.0100000026,-0.01,-0.0100000044],"type":"VEC3","name":"accessorPositions"},{"bufferView":2,"componentType":5126,"count":2280,"type":"VEC4","name":"accessorTangents"},{"bufferView":1,"byteOffset":27360,"componentType":5126,"count":2280,"type":"VEC3","name":"accessorNormals"},{"bufferView":3,"componentType":5126,"count":2280,"type":"VEC2","name":"accessorUVs"}],"bufferViews":[{"buffer":0,"byteLength":4560,"name":"bufferViewScalar"},{"buffer":0,"byteOffset":4560,"byteLength":54720,"byteStride":12,"name":"bufferViewFloatVec3"},{"buffer":0,"byteOffset":59280,"byteLength":36480,"byteStride":16,"name":"bufferViewFloatVec4"},{"buffer":0,"byteOffset":95760,"byteLength":18240,"byteStride":8,"name":"bufferViewFloatVec2"}],"buffers":[{"uri":"test.bin","byteLength":114000}],"materials":[{"pbrMetallicRoughness":{"baseColorTexture":{"index":0},"metallicFactor":0.0,"roughnessFactor":0.450053632},"name":"lambert1"}],"textures":[{"sampler":0,"source":0,"name":"下载.jpg"}],"images":[{"uri":"下载.jpg"}],"samplers":[{"magFilter":9729,"minFilter":9987}]}